<?xml version="1.0" encoding="UTF-8"?>
<!-- Created with Inkscape (http://www.inkscape.org/) -->
<svg width="210mm" height="297mm" version="1.1" viewBox="0 0 210 297" xml:space="preserve" xmlns="http://www.w3.org/2000/svg"><g stroke-width=".26458"><path d="m46.508 123.32v-15.214h116.42v30.427h-116.42zm114.24-3.2411 0.0696-9.062h-90.795l0.28391 0.92604-0.48486 2.1167-1.8723 1.7198h-2.4153l-1.5846-0.81944-1.033-1.6941-0.001978-2.249h-13.676l-0.34496 7.5406-9.68e-4 5.1814-9.68e-4 5.1814 0.177 0.177 0.177 0.17701 111.43-0.1336zm-63.437 0.0661v-7.5406h61.99l-0.17111 2.0243-0.17112 2.0243v11.033h-61.648zm4.2261 2.9766 0.57805-3.2411 0.0693-0.26458 0.0693-0.26459 2.318 7.0115h2.2262l1.0312-2.7781 1.228-3.8377 0.35312 0.39814 0.31101 1.7198 0.31101 1.7198 0.27267 1.3891 0.27265 1.3891h2.3437v-0.26759l-1.8589-10.713-0.13394-0.59531-0.13393-0.59531h-2.2587l-2.6046 7.9325-0.17615-0.19593-0.17615-0.19592-2.4911-7.5406h-2.3273l-0.13722 0.59531-0.13723 0.59531-1.8523 10.639v0.34114h2.3252zm22.71-1.8521-2.939-5.0932-0.63505-0.93102-5.3102 9.1331-1.171 1.9844h12.994zm11.902 4.5872 0.98165-0.50598 1.693-1.7662 0.41029-0.98369 0.41028-0.98369v-1.8691h-6.3804l0.1628 2.249 3.3427 0.1584-0.10423 0.31764-0.10423 0.31765-1.7572 1.1906h-1.9263l-2.3611-1.1906-0.47926-0.92605-0.47925-0.92604 0.13431-1.4366 0.13432-1.4366 1.8631-1.8631 3.3246-0.20578 1.093 0.79628 1.093 0.79629 1.6544-1.707-1.4593-1.3654-1.7838-0.90085h-3.5906l-2.2985 1.0231-2.1885 2.3858-0.28987 1.3516-0.28986 1.3516 0.52754 2.7817 1.4074 2.0309 1.6003 1.1606 1.6142 0.6212 3.0638 0.0402 0.98164-0.50598zm8.5223-5.5794v-6.0854h-2.6458v12.171h2.6458zm6.6708 3.6834 0.0761-2.402 3.3266 4.804h2.9299l-4.5772-6.6624 1.2636-1.6298 1.2636-1.6298 1.4821-1.8404v-0.4086h-2.5984l-3.2225 4.037v-4.066l-2.5135 0.1612-0.1422 12.039h2.6359zm-72.023-2.4928v-4.8948h1.3229v1.6282l1.6081-1.6081 1.8611-0.34914 1.9548 0.31068 1.7533 1.8992 1.1137-1.4158 1.7462-0.72963h1.6568l1.8669 0.8859 0.97958 2.1568 0.0116 7.0115h-1.3229v-7.1844l-1.5468-1.5468h-1.9276l-0.49337 0.26405-0.49337 0.26404-1.2274 1.7209-0.26458 6.35-1.138 0.1622-0.09246-3.6088-0.09247-3.6088-1.7281-1.5436h-1.8253l-0.92882 0.81552-0.92882 0.81551-0.53907 1.9408-0.0016 2.5797-0.0014 2.5797h-1.3228zm-26.723-2.1166v-6.7469h6.8792v1.3229h-5.5769l0.07645 2.3151 0.07645 2.3151h5.4247l-3.44e-4 0.59531-3.5e-4 0.59532h-5.5562v6.35h-1.3229zm13.333 6.3284 0.1606-0.41851v-6.5713h1.0583v7.4083h-1.3795zm7.8335-6.3284v-6.7469h1.0583v13.494h-1.0583z" fill="#fdfdfd"/><path d="m49.004 122.53-2.94e-4 -6.6146 0.1662 6.4515-0.08281 3.3888-0.08281 3.3888zm111.65 1.3229-5.3e-4 -5.2917 0.0863 2.5656 0.0863 2.5656-0.0859 2.726-0.0859 2.7261-5.3e-4 -5.2917zm-1.5846-2.3812 2.6e-4 -6.35 0.1666 6.5126-0.1674 6.1874 2.7e-4 -6.35zm-106.14 4.7114 0.46806-0.12197 0.65139 0.26354-1.5875-0.02 0.46806-0.12197zm13.229 0 0.46806-0.12197 0.65139 0.26354-1.5875-0.02 0.46806-0.12197zm7.8002 8e-3 0.33073-0.13345 0.66146 0.2669h-1.3229zm70.551-3.6612 7.9e-4 -3.9688 0.0904 2.0626 0.0904 2.0626-0.0911 1.9061-0.0911 1.9061 8e-4 -3.9688zm4.241-2.1167 2.6e-4 -6.0854 0.1678 6.2476-0.0843 2.9616-0.0843 2.9616 2.7e-4 -6.0854zm-82.824 1.7198v-3.5719l0.18512 3.5719-0.09256 1.7859-0.09256 1.7859zm67.437-1.3229v-1.1906l0.11467 0.59531 0.11466 0.59531-0.11466 0.59531-0.11467 0.59532zm-6.3803-1.0583v-0.66146l0.2669 0.66146-0.2669 0.66146zm-71.537-1.2537 1.3979-0.0975 2.4958 0.1974-5.2917-2e-3 1.3979-0.0975zm31.244-1.326-0.36312-0.46302 0.46302 0.36312 0.46302 0.36313v0.1998h-0.19979zm-20.389-1.3052 0.34727-0.13896 0.15985 0.15985 0.15985 0.15985-1.0142-0.0418z" fill="#d1d1d1"/><path d="m77.022 129.08 28.001-0.0686 55.653 0.1372-55.827-1e-5h-55.827zm2.1529-7.7391 0.0088-4.8948 1.3229-0.051-1.1791 0.21739-0.16136 9.6233zm71.94 2.5135 1e-3 -2.6458 0.195 2.7959-0.1974 2.4958 1e-3 -2.6458zm-16.837-1.9108 0.85399-0.10627 0.99809 0.10413 0.99809 0.10414-3.7042 4e-3 0.854-0.10627zm7.8439-4.7038 1e-3 -2.9104 0.0958 1.531 0.0958 1.531-0.1936 2.7588zm-82.607 1.9844v-0.66146l0.2669 0.66146-0.2669 0.66146zm84.982-2.6458v-2.249l0.20256 2.249-0.20256 2.249zm16.153-1.7198 8e-4 -3.9688 0.1808 4.1252-0.1822 3.8123 7.9e-4 -3.9688zm-76.62 1.2745 0.34726-0.13896 0.15985 0.15985 0.15985 0.15985-1.0142-0.0418zm49.461-0.25907 0.33073-0.13345 0.66146 0.2669h-1.3229zm-32.279-1.599 0.59531-0.11466 0.59532 0.11466 0.59531 0.11467h-2.3812zm48.154 0 0.59531-0.11466 0.59531 0.11466 0.59532 0.11467h-2.3812zm5.6885-3e-3 0.7276-0.11022 1.4552 0.22044h-2.9104zm-95.529-1.0011 0.0098-0.79375 0.12197 0.46805 0.12197 0.46806-0.13177 0.32569-0.13177 0.3257 0.0098-0.79375z" fill="#b8b8b8"/><path d="m73.608 120.68 2.65e-4 -5.8208 0.08454 2.9912 0.08454 2.9912-0.0849 2.8296-0.0849 2.8296 2.65e-4 -5.8208zm12.952 2.7781v-3.0427l0.19094 3.0427-0.09547 1.5214-0.09547 1.5214zm55.564-0.26458v-3.3073l0.0939 1.6536 0.0939 1.6536-0.0939 1.6536-0.0939 1.6536zm-89.681-3.9688v-6.7469l0.08269 3.3734 0.08269 3.3734-0.16538 6.7469zm22.489-0.39687 2.64e-4 -6.35 0.08335 3.2563 0.08335 3.2563-0.08366 3.0937-0.08366 3.0937 2.65e-4 -6.35zm60.012 0.9951 1.5214-0.0955 3.0427 0.191h-6.0854zm-25.797-5.5475 0.59531-0.11466 0.59532 0.11466 0.59531 0.11467h-2.3812zm33.602 0 0.59531-0.11466 0.59531 0.11466 0.59531 0.11467h-2.3812zm-80.082-2.0843 0.02089-0.50711 0.13896 0.34726 0.13896 0.34727-0.15985 0.15985-0.15985 0.15985 0.02089-0.50712z" fill="#8f8f8f"/><path d="m97.153 122.93v-4.8948l0.08731 2.4474 0.08731 2.4474-0.08731 2.4474-0.08731 2.4474zm-22.283 2.7781 0.0098-0.79375 0.12197 0.46806 0.12197 0.46805-0.13177 0.3257-0.13178 0.32569 0.0098-0.79375zm18.836-2.5135v-3.3073l0.09394 1.6536 0.09394 1.6536-0.09394 1.6536-0.09394 1.6536zm1.5883-0.13229 7.93e-4 -3.4396 0.18562 3.5939-0.1873 3.2853 7.93e-4 -3.4396zm55.815-6.6146 2e-3 -2.1167 0.20324 2.2629-0.10337 0.9852-0.10336 0.98519 2e-3 -2.1167zm-13.32 0.26458 0.62141-0.66146h0.26458l-1.2428 1.3229h-0.26458zm-46.633-0.57211 0.33073-0.13345 0.33073 0.13345 0.33073 0.13346h-1.3229zm-27.484-1.3461-0.36313-0.46302 0.46302 0.36312 0.46302 0.36313v0.1998h-0.19979zm9.899-0.99219 0.0036-1.3229 0.22115 1.4625-0.11419 0.59167-0.11419 0.59168 0.0036-1.3229zm-21.044-2.7113 3.5057-0.0822 7.0115 0.1644h-14.023zm23.548-4.2e-4 5.887-0.0765 11.774 0.153h-23.548z" fill="#707070"/><path d="m105.45 126.18 0.5984-0.11507 0.91987 0.24082-2.1167-0.01zm49.875-3e-3 0.73124-0.11057 0.59168 0.11418 0.59167 0.11419-2.6458-8e-3zm-99.884-6.3552 1.3891-0.0972 2.7781 0.1944h-5.5562zm-1.4274-3.6414-0.0015-2.3812 0.10089 1.1165 0.10089 1.1165-0.09942 1.2648-0.09942 1.2648-0.0015-2.3812zm43.132-0.79375 0.0011-2.9104 0.1915 3.062-0.09684 1.3794-0.09684 1.3794 0.0011-2.9104zm-13.378 2.3328 0.34727-0.13896 0.15985 0.15985 0.15985 0.15985-1.0142-0.0418zm17.578-6.6321 7.8714-0.0742 15.743 0.1484h-31.485z" fill="#4c4c4c"/><path d="m80.721 123.59 0.0027-1.5875 0.10707 0.86463 0.10707 0.86463-0.10976 0.72287-0.10977 0.72287zm-0.03041-6.6146 0.0098-0.79375 0.12197 0.46806 0.12197 0.46805-0.13177 0.3257-0.13178 0.32569 0.0098-0.79375zm52.024-5.8869 8.0226-0.0741 7.8524 0.0741 7.8524 0.0742-31.75-1.3e-4z" fill="#303030"/><path d="m49.154 120.15v-8.8635h13.425l0.13761 1.2208 0.13761 1.2208 1.0218 1.3948 1.8145 0.92522 1.8521-0.00117 1.7246-1.0515 0.52576-0.86231 0.52576-0.8623 0.001978-1.9844h83.79l6.4331-0.3459v18.073h-111.39zm110.07 0v-7.5406h-62.177v15.081h62.177zm-60.328 5.887-3e-3 -0.33073 1.9652-11.27 2.1358 0.1574 2.4738 7.1438 0.34602 1.0583 1.392-4.101 1.392-4.101 2.1118-0.158 1.9642 11.535-8e-3 0.2144-8e-3 0.21441-1.9663-0.1642-1.3108-7.2798-0.17349 0.20031-0.1735 0.20031-2.303 6.7469h-1.9666l-2.2265-6.7469-0.2316-0.25135-0.2316-0.25136v0.39526l-0.54371 3.0964-0.5437 3.0964-0.13558 0.46302-0.13559 0.46302h-1.8164l-3e-3 -0.33073zm15.658 0.11462 0.0882-0.21611 6.0621-10.395 0.0884 0.1114 5.9618 10.319 0.11101 0.19843 0.11101 0.19844h-12.511zm17.856-0.0717-1.2823-0.20473-2.094-1.3857-0.76855-1.2119-0.76854-1.2119-0.17824-1.1885-0.17823-1.1885 0.63578-2.8409 2.3747-2.3747 2.7116-0.80526h1.66l2.631 0.78131 1.436 1.4989-0.7658 0.7337-0.76581 0.73369-0.35854-0.58012-2.1741-1.1091-2.5919 0.24905-1.3831 1.0326-0.53606 0.718-0.53607 0.718 0.014 2.7646 0.88046 1.6687 1.9786 1.2228h2.7304l1.9184-1.4632v-0.76682h-3.4396v-1.8521h5.8208v2.0078l-1.7198 2.8612-2.3812 1.1672-1.5875 0.23074zm9.8812-5.6653v-5.9531h2.1167v11.906h-2.1167zm6.6146 0v-5.9531h2.1167v3.9688l0.39688-0.0244 3.086-3.9444h2.4024l-0.726 1.0409-1.6416 2.0964-1.6416 2.0964 2.1046 3.0533 2.1046 3.0533v0.30139h-2.3418l-3.6113-5.1594-0.1508 5.424h-2.0982zm-94.985 2.7781v-3.175h5.8208v-1.5875h-5.5562v-4.4979h5.5562v-1.3229h-7.4083v13.758h1.5875zm13.229-0.66146v-3.8365h-1.3229v7.6729h1.3229zm7.9375-3.0427v-6.8792h-1.5875v13.758h1.5875zm5.651 5.887 0.164-0.99218 0.0058-3.8627 0.42544-0.84676 0.42544-0.84675 1.1335-0.91428 2.1167 6e-3 0.4198 0.32231 0.4198 0.32232 0.3078 0.57792 0.3078 0.5779v6.6494h1.5209l0.11864-2.9766 0.11863-2.9766 0.41674-0.79438 0.41674-0.79437 1.1016-0.99696h2.1489l1.3015 1.2227v7.3161h1.8521l-0.0016-3.2412-0.0016-3.2411-0.53305-1.919-1.3888-1.3888-1.022-0.3062-1.0218-0.30619-2.2051 0.66067-1.4929 1.493-1.7635-1.7635-0.99889-0.18739-0.99889-0.1874-1.9929 0.5971-1.3006 1.3006 0.11482-0.78233 0.11482-0.78233h-1.9121v10.054h1.5183z"/></g></svg>
